<mxfile host="app.diagrams.net" modified="2024-04-16T09:09:39.846Z" agent="Mozilla/5.0 (Macintosh; Intel Mac OS X 10_15_7) AppleWebKit/537.36 (KHTML, like Gecko) Chrome/123.0.0.0 Safari/537.36" etag="kLRa7lQKW0IqlhjOiSfd" version="24.1.0" type="github">
  <diagram name="第 1 页" id="78CFMSA-E84pBcQxb0_8">
    <mxGraphModel dx="2261" dy="795" grid="1" gridSize="10" guides="1" tooltips="1" connect="1" arrows="1" fold="1" page="1" pageScale="1" pageWidth="827" pageHeight="1169" math="0" shadow="0">
      <root>
        <mxCell id="0" />
        <mxCell id="1" parent="0" />
        <mxCell id="ZHbylcsSJ1T-WyO8AKcl-22" value="" style="rounded=0;whiteSpace=wrap;html=1;dashed=1;strokeWidth=2;fillColor=#fff2cc;strokeColor=#d6b656;" vertex="1" parent="1">
          <mxGeometry x="-320" y="40" width="460" height="490" as="geometry" />
        </mxCell>
        <mxCell id="ZHbylcsSJ1T-WyO8AKcl-21" value="" style="rounded=0;whiteSpace=wrap;html=1;dashed=1;strokeWidth=2;fillColor=#d5e8d4;strokeColor=#82b366;" vertex="1" parent="1">
          <mxGeometry x="210" y="80" width="460" height="490" as="geometry" />
        </mxCell>
        <mxCell id="ZHbylcsSJ1T-WyO8AKcl-20" value="" style="rounded=0;whiteSpace=wrap;html=1;dashed=1;strokeWidth=2;fillColor=#dae8fc;strokeColor=#6c8ebf;" vertex="1" parent="1">
          <mxGeometry x="690" y="120" width="330" height="592" as="geometry" />
        </mxCell>
        <mxCell id="ZHbylcsSJ1T-WyO8AKcl-6" style="edgeStyle=orthogonalEdgeStyle;rounded=0;orthogonalLoop=1;jettySize=auto;html=1;" edge="1" parent="1" source="ZHbylcsSJ1T-WyO8AKcl-1" target="ZHbylcsSJ1T-WyO8AKcl-4">
          <mxGeometry relative="1" as="geometry" />
        </mxCell>
        <mxCell id="ZHbylcsSJ1T-WyO8AKcl-1" value="rcfeaturemng" style="strokeWidth=2;html=1;shape=mxgraph.flowchart.database;whiteSpace=wrap;" vertex="1" parent="1">
          <mxGeometry x="301" y="110" width="226" height="60" as="geometry" />
        </mxCell>
        <mxCell id="ZHbylcsSJ1T-WyO8AKcl-8" style="edgeStyle=orthogonalEdgeStyle;rounded=0;orthogonalLoop=1;jettySize=auto;html=1;" edge="1" parent="1" source="ZHbylcsSJ1T-WyO8AKcl-4" target="ZHbylcsSJ1T-WyO8AKcl-1">
          <mxGeometry relative="1" as="geometry" />
        </mxCell>
        <mxCell id="ZHbylcsSJ1T-WyO8AKcl-28" style="edgeStyle=orthogonalEdgeStyle;rounded=0;orthogonalLoop=1;jettySize=auto;html=1;" edge="1" parent="1" source="ZHbylcsSJ1T-WyO8AKcl-4" target="ZHbylcsSJ1T-WyO8AKcl-10">
          <mxGeometry relative="1" as="geometry" />
        </mxCell>
        <mxCell id="ZHbylcsSJ1T-WyO8AKcl-4" value="rcfeaturemng" style="sketch=0;outlineConnect=0;fontColor=#232F3E;gradientColor=none;fillColor=#232F3D;strokeColor=none;dashed=0;verticalLabelPosition=bottom;verticalAlign=top;align=center;html=1;fontSize=12;fontStyle=0;aspect=fixed;pointerEvents=1;shape=mxgraph.aws4.traditional_server;" vertex="1" parent="1">
          <mxGeometry x="391" y="260" width="45" height="78" as="geometry" />
        </mxCell>
        <mxCell id="ZHbylcsSJ1T-WyO8AKcl-25" style="edgeStyle=orthogonalEdgeStyle;rounded=0;orthogonalLoop=1;jettySize=auto;html=1;" edge="1" parent="1" source="ZHbylcsSJ1T-WyO8AKcl-9" target="ZHbylcsSJ1T-WyO8AKcl-10">
          <mxGeometry relative="1" as="geometry" />
        </mxCell>
        <mxCell id="ZHbylcsSJ1T-WyO8AKcl-9" value="rcdataIntegration" style="sketch=0;outlineConnect=0;fontColor=#232F3E;gradientColor=none;fillColor=#232F3D;strokeColor=none;dashed=0;verticalLabelPosition=bottom;verticalAlign=top;align=center;html=1;fontSize=12;fontStyle=0;aspect=fixed;pointerEvents=1;shape=mxgraph.aws4.traditional_server;" vertex="1" parent="1">
          <mxGeometry x="230" y="410" width="45" height="78" as="geometry" />
        </mxCell>
        <mxCell id="ZHbylcsSJ1T-WyO8AKcl-26" style="edgeStyle=orthogonalEdgeStyle;rounded=0;orthogonalLoop=1;jettySize=auto;html=1;" edge="1" parent="1" source="ZHbylcsSJ1T-WyO8AKcl-10" target="ZHbylcsSJ1T-WyO8AKcl-11">
          <mxGeometry relative="1" as="geometry" />
        </mxCell>
        <mxCell id="ZHbylcsSJ1T-WyO8AKcl-27" style="edgeStyle=orthogonalEdgeStyle;rounded=0;orthogonalLoop=1;jettySize=auto;html=1;" edge="1" parent="1" source="ZHbylcsSJ1T-WyO8AKcl-10" target="ZHbylcsSJ1T-WyO8AKcl-4">
          <mxGeometry relative="1" as="geometry" />
        </mxCell>
        <mxCell id="ZHbylcsSJ1T-WyO8AKcl-10" value="rcdatacore" style="sketch=0;outlineConnect=0;fontColor=#232F3E;gradientColor=none;fillColor=#232F3D;strokeColor=none;dashed=0;verticalLabelPosition=bottom;verticalAlign=top;align=center;html=1;fontSize=12;fontStyle=0;aspect=fixed;pointerEvents=1;shape=mxgraph.aws4.traditional_server;" vertex="1" parent="1">
          <mxGeometry x="391.5" y="410" width="45" height="78" as="geometry" />
        </mxCell>
        <mxCell id="ZHbylcsSJ1T-WyO8AKcl-11" value="rcdataservice" style="sketch=0;outlineConnect=0;fontColor=#232F3E;gradientColor=none;fillColor=#232F3D;strokeColor=none;dashed=0;verticalLabelPosition=bottom;verticalAlign=top;align=center;html=1;fontSize=12;fontStyle=0;aspect=fixed;pointerEvents=1;shape=mxgraph.aws4.traditional_server;" vertex="1" parent="1">
          <mxGeometry x="560" y="410" width="45" height="78" as="geometry" />
        </mxCell>
        <mxCell id="ZHbylcsSJ1T-WyO8AKcl-24" style="edgeStyle=orthogonalEdgeStyle;rounded=0;orthogonalLoop=1;jettySize=auto;html=1;" edge="1" parent="1" source="ZHbylcsSJ1T-WyO8AKcl-12" target="ZHbylcsSJ1T-WyO8AKcl-9">
          <mxGeometry relative="1" as="geometry" />
        </mxCell>
        <mxCell id="ZHbylcsSJ1T-WyO8AKcl-12" value="处置" style="sketch=0;outlineConnect=0;fontColor=#232F3E;gradientColor=none;fillColor=#232F3D;strokeColor=none;dashed=0;verticalLabelPosition=bottom;verticalAlign=top;align=center;html=1;fontSize=12;fontStyle=0;aspect=fixed;pointerEvents=1;shape=mxgraph.aws4.traditional_server;" vertex="1" parent="1">
          <mxGeometry x="-70" y="110" width="45" height="78" as="geometry" />
        </mxCell>
        <mxCell id="ZHbylcsSJ1T-WyO8AKcl-23" style="edgeStyle=orthogonalEdgeStyle;rounded=0;orthogonalLoop=1;jettySize=auto;html=1;" edge="1" parent="1" source="ZHbylcsSJ1T-WyO8AKcl-13" target="ZHbylcsSJ1T-WyO8AKcl-9">
          <mxGeometry relative="1" as="geometry" />
        </mxCell>
        <mxCell id="ZHbylcsSJ1T-WyO8AKcl-13" value="rcfeaturemng" style="sketch=0;outlineConnect=0;fontColor=#232F3E;gradientColor=none;fillColor=#232F3D;strokeColor=none;dashed=0;verticalLabelPosition=bottom;verticalAlign=top;align=center;html=1;fontSize=12;fontStyle=0;aspect=fixed;pointerEvents=1;shape=mxgraph.aws4.traditional_server;" vertex="1" parent="1">
          <mxGeometry x="-70" y="320" width="45" height="78" as="geometry" />
        </mxCell>
        <mxCell id="ZHbylcsSJ1T-WyO8AKcl-15" style="edgeStyle=orthogonalEdgeStyle;rounded=0;orthogonalLoop=1;jettySize=auto;html=1;" edge="1" parent="1" source="ZHbylcsSJ1T-WyO8AKcl-14" target="ZHbylcsSJ1T-WyO8AKcl-9">
          <mxGeometry relative="1" as="geometry" />
        </mxCell>
        <mxCell id="ZHbylcsSJ1T-WyO8AKcl-14" value="rcfeaturemng" style="strokeWidth=2;html=1;shape=mxgraph.flowchart.database;whiteSpace=wrap;" vertex="1" parent="1">
          <mxGeometry x="-320" y="419" width="226" height="60" as="geometry" />
        </mxCell>
        <mxCell id="ZHbylcsSJ1T-WyO8AKcl-17" value="rcdataservice" style="sketch=0;outlineConnect=0;fontColor=#232F3E;gradientColor=none;fillColor=#232F3D;strokeColor=none;dashed=0;verticalLabelPosition=bottom;verticalAlign=top;align=center;html=1;fontSize=12;fontStyle=0;aspect=fixed;pointerEvents=1;shape=mxgraph.aws4.traditional_server;" vertex="1" parent="1">
          <mxGeometry x="827" y="230" width="45" height="78" as="geometry" />
        </mxCell>
        <mxCell id="ZHbylcsSJ1T-WyO8AKcl-18" value="rcdataservice" style="sketch=0;outlineConnect=0;fontColor=#232F3E;gradientColor=none;fillColor=#232F3D;strokeColor=none;dashed=0;verticalLabelPosition=bottom;verticalAlign=top;align=center;html=1;fontSize=12;fontStyle=0;aspect=fixed;pointerEvents=1;shape=mxgraph.aws4.traditional_server;" vertex="1" parent="1">
          <mxGeometry x="827" y="570" width="45" height="78" as="geometry" />
        </mxCell>
        <mxCell id="ZHbylcsSJ1T-WyO8AKcl-19" value="rcdataservice" style="sketch=0;outlineConnect=0;fontColor=#232F3E;gradientColor=none;fillColor=#232F3D;strokeColor=none;dashed=0;verticalLabelPosition=bottom;verticalAlign=top;align=center;html=1;fontSize=12;fontStyle=0;aspect=fixed;pointerEvents=1;shape=mxgraph.aws4.traditional_server;" vertex="1" parent="1">
          <mxGeometry x="827" y="390" width="45" height="78" as="geometry" />
        </mxCell>
      </root>
    </mxGraphModel>
  </diagram>
</mxfile>
